<svg width="351" height="190" viewBox="0 0 351 190" fill="none" xmlns="http://www.w3.org/2000/svg">
<path d="M91.1413 8.88546C105.614 10.5469 117.705 18.8594 124.718 30.4198C131.648 27.5072 139.399 26.2791 147.398 27.1974C172.251 30.0505 190.086 52.511 187.233 77.3638C184.38 102.217 161.919 120.051 137.066 117.198C134.189 116.868 131.406 116.271 128.738 115.442C119.265 125.882 105.073 131.762 89.9997 130.032C81.803 129.091 74.3708 126.016 68.1913 121.427C61.1328 124.496 53.197 125.807 45.0003 124.866C20.1475 122.013 2.31291 99.5527 5.16601 74.6998C7.61063 53.4065 24.4482 37.2666 44.8518 34.8743C52.8295 17.61 71.2153 6.59809 91.1413 8.88546Z" fill="#F1F1F1"/>
<path d="M247.646 57.8565C262.119 59.518 274.209 67.8305 281.223 79.3909C288.152 76.4782 295.903 75.2502 303.903 76.1685C328.756 79.0216 346.59 101.482 343.737 126.335C340.884 151.188 318.424 169.022 293.571 166.169C290.693 165.839 287.911 165.242 285.242 164.413C275.77 174.853 261.578 180.734 246.504 179.003C238.308 178.062 230.875 174.987 224.696 170.398C217.637 173.467 209.702 174.778 201.505 173.837C176.652 170.984 158.818 148.524 161.671 123.671C164.115 102.378 180.953 86.2377 201.357 83.8454C209.334 66.581 227.72 55.5692 247.646 57.8565Z" fill="#F1F1F1"/>
<mask id="mask0_909_421" style="mask-type:luminance" maskUnits="userSpaceOnUse" x="136" y="137" width="29" height="25">
<path d="M136.696 137.458H164.086V161.03H136.696V137.458Z" fill="white"/>
</mask>
<g mask="url(#mask0_909_421)">
<path d="M163.946 137.761V160.888H152.477C152.477 160.888 142.942 161.161 139.212 160.888C135.48 160.616 137.276 157.633 137.276 157.633L146.259 150.169V137.761H163.946Z" fill="#60919E"/>
</g>
<path d="M179.285 137.049L186.266 159.136L197.221 155.799C197.221 155.799 206.409 153.284 209.89 151.938C213.372 150.594 210.754 148.266 210.754 148.266L199.922 143.753L196.176 131.901L179.284 137.049H179.285Z" fill="#60919E"/>
<mask id="mask1_909_421" style="mask-type:luminance" maskUnits="userSpaceOnUse" x="200" y="70" width="44" height="40">
<path d="M200.015 70.2819H244V109.797H200.015V70.2819Z" fill="white"/>
</mask>
<g mask="url(#mask1_909_421)">
<path d="M200.407 106.648C200.407 106.648 242.219 124.353 244 75.0159C244 75.0159 243.467 66.517 239.61 76.5024C239.61 76.5024 239.475 64.1075 235.341 75.5392C235.341 75.5392 233.466 65.1803 230.632 74.4356C227.797 83.6908 228.61 91.0336 221.599 94.2782C221.599 94.2782 212.653 95.0932 206.63 94.7243C200.607 94.3553 200.407 106.648 200.407 106.648Z" fill="#53BDD9"/>
</g>
<path d="M146.259 110.745H163.946V150.169H146.259V110.745Z" fill="#53BDD9"/>
<path d="M199.924 143.753L183.032 148.901L171.13 111.247L188.022 106.1L199.924 143.753Z" fill="#53BDD9"/>
<mask id="mask2_909_421" style="mask-type:luminance" maskUnits="userSpaceOnUse" x="114" y="33" width="112" height="90">
<path d="M114.139 33H225.311V122.837H114.139V33Z" fill="white"/>
</mask>
<g mask="url(#mask2_909_421)">
<path d="M150.824 57.3422C150.824 57.3422 156.14 27.5404 173.745 33.9123C191.35 40.2811 188.562 57.4626 188.562 57.4626C188.562 57.4626 192.138 32.1881 210.843 36.203C229.55 40.2178 228.651 71.7776 215.993 93.2641C203.335 114.751 168.314 132.043 137.204 116.932C106.096 101.819 111.175 50.0982 126.818 44.6509C142.459 39.2037 150.825 57.3422 150.825 57.3422H150.824Z" fill="#53BDD9"/>
</g>
<mask id="mask3_909_421" style="mask-type:luminance" maskUnits="userSpaceOnUse" x="97" y="68" width="38" height="45">
<path d="M97 68.3062H134.682V112.168H97V68.3062Z" fill="white"/>
</mask>
<g mask="url(#mask3_909_421)">
<path d="M133.985 111.353C133.985 111.353 89.3107 120.01 98.1597 71.4118C98.1597 71.4118 100.506 63.2154 102.131 73.775C102.131 73.775 104.924 61.6857 106.51 73.7148C106.51 73.7148 110.566 63.9764 111.35 73.6098C112.135 83.2448 109.764 90.2542 115.922 94.8771C115.922 94.8771 124.492 97.5244 130.46 98.4104C136.427 99.2948 133.985 111.353 133.985 111.353Z" fill="#53BDD9"/>
</g>
<path d="M154.734 86.514C154.734 86.7641 154.721 87.0126 154.696 87.2611C154.672 87.5096 154.634 87.7566 154.584 88.002C154.535 88.2459 154.474 88.4883 154.4 88.7275C154.326 88.9668 154.24 89.2014 154.142 89.4314C154.046 89.6629 153.937 89.8883 153.816 90.109C153.697 90.3282 153.566 90.5428 153.424 90.7511C153.284 90.958 153.132 91.1586 152.971 91.3516C152.809 91.5445 152.639 91.7298 152.458 91.9057C152.279 92.0832 152.092 92.2499 151.895 92.4089C151.698 92.5664 151.494 92.7161 151.281 92.8535C151.071 92.9924 150.854 93.1205 150.629 93.2394C150.404 93.3567 150.174 93.4632 149.939 93.5589C149.705 93.6546 149.466 93.7379 149.222 93.8105C148.978 93.883 148.733 93.9448 148.482 93.9926C148.234 94.042 147.982 94.0775 147.729 94.1022C147.475 94.1269 147.222 94.1393 146.967 94.1393C146.714 94.1393 146.459 94.1269 146.206 94.1022C145.954 94.0775 145.702 94.042 145.452 93.9926C145.203 93.9448 144.956 93.883 144.712 93.8105C144.47 93.7379 144.231 93.6546 143.995 93.5589C143.761 93.4632 143.531 93.3567 143.306 93.2394C143.082 93.1205 142.864 92.9924 142.653 92.8535C142.442 92.7161 142.237 92.5664 142.041 92.4089C141.844 92.2499 141.655 92.0832 141.476 91.9057C141.297 91.7298 141.125 91.5445 140.965 91.3516C140.802 91.1586 140.651 90.958 140.51 90.7511C140.368 90.5428 140.238 90.3282 140.118 90.109C139.998 89.8883 139.89 89.6629 139.792 89.4314C139.695 89.2014 139.61 88.9668 139.536 88.7275C139.462 88.4883 139.401 88.2459 139.35 88.002C139.301 87.7566 139.264 87.5096 139.239 87.2611C139.213 87.0126 139.201 86.7641 139.201 86.514C139.201 86.264 139.213 86.0155 139.239 85.7669C139.264 85.5184 139.301 85.2715 139.35 85.026C139.401 84.7821 139.462 84.5398 139.536 84.3006C139.61 84.0613 139.695 83.8267 139.792 83.5967C139.89 83.3651 139.998 83.1398 140.118 82.9191C140.238 82.6999 140.368 82.4853 140.51 82.2785C140.651 82.0701 140.802 81.8694 140.965 81.6765C141.125 81.4835 141.297 81.2983 141.476 81.1223C141.655 80.9464 141.844 80.7781 142.041 80.6191C142.237 80.4617 142.442 80.312 142.653 80.1746C142.864 80.0357 143.082 79.9076 143.306 79.7887C143.531 79.6714 143.761 79.5649 143.995 79.4692C144.231 79.3735 144.47 79.2901 144.712 79.2176C144.956 79.145 145.203 79.0848 145.452 79.0354C145.702 78.986 145.954 78.9505 146.206 78.9258C146.459 78.9011 146.714 78.8888 146.967 78.8888C147.222 78.8888 147.475 78.9011 147.729 78.9258C147.982 78.9505 148.234 78.986 148.482 79.0354C148.733 79.0848 148.978 79.145 149.222 79.2176C149.466 79.2901 149.705 79.3735 149.939 79.4692C150.174 79.5649 150.404 79.6714 150.629 79.7887C150.854 79.9076 151.071 80.0357 151.281 80.1746C151.494 80.312 151.698 80.4617 151.895 80.6191C152.092 80.7781 152.279 80.9464 152.458 81.1223C152.639 81.2983 152.809 81.4835 152.971 81.6765C153.132 81.8694 153.284 82.0701 153.424 82.2785C153.566 82.4853 153.697 82.6999 153.816 82.9191C153.937 83.1398 154.046 83.3651 154.142 83.5967C154.24 83.8267 154.326 84.0613 154.4 84.3006C154.474 84.5398 154.535 84.7821 154.584 85.026C154.634 85.2715 154.672 85.5184 154.696 85.7669C154.721 86.0155 154.734 86.264 154.734 86.514Z" fill="#60919E"/>
<path d="M192.217 86.514C192.217 86.7641 192.205 87.0126 192.181 87.2611C192.156 87.5096 192.118 87.7566 192.069 88.002C192.019 88.2459 191.958 88.4883 191.884 88.7275C191.81 88.9668 191.725 89.2014 191.627 89.4314C191.53 89.6629 191.421 89.8883 191.301 90.109C191.18 90.3282 191.05 90.5428 190.91 90.7511C190.768 90.958 190.617 91.1586 190.455 91.3516C190.293 91.5445 190.123 91.7298 189.944 91.9057C189.763 92.0832 189.575 92.2499 189.379 92.4089C189.182 92.5664 188.978 92.7161 188.767 92.8535C188.554 92.9924 188.337 93.1205 188.112 93.2394C187.889 93.3567 187.659 93.4632 187.423 93.5589C187.189 93.6546 186.949 93.7379 186.706 93.8105C186.463 93.883 186.216 93.9448 185.966 93.9926C185.717 94.042 185.466 94.0775 185.212 94.1022C184.959 94.1269 184.706 94.1393 184.451 94.1393C184.197 94.1393 183.943 94.1269 183.691 94.1022C183.438 94.0775 183.186 94.042 182.936 93.9926C182.687 93.9448 182.44 93.883 182.198 93.8105C181.954 93.7379 181.715 93.6546 181.479 93.5589C181.244 93.4632 181.014 93.3567 180.791 93.2394C180.566 93.1205 180.349 92.9924 180.136 92.8535C179.926 92.7161 179.721 92.5664 179.524 92.4089C179.328 92.2499 179.139 92.0832 178.96 91.9057C178.78 91.7298 178.609 91.5445 178.448 91.3516C178.286 91.1586 178.135 90.958 177.993 90.7511C177.852 90.5428 177.721 90.3282 177.602 90.109C177.482 89.8883 177.374 89.6629 177.276 89.4314C177.178 89.2014 177.093 88.9668 177.02 88.7275C176.946 88.4883 176.884 88.2459 176.834 88.002C176.785 87.7566 176.747 87.5096 176.722 87.2611C176.697 87.0126 176.684 86.7641 176.684 86.514C176.684 86.264 176.697 86.0155 176.722 85.7669C176.747 85.5184 176.785 85.2715 176.834 85.026C176.884 84.7821 176.946 84.5398 177.02 84.3006C177.093 84.0613 177.178 83.8267 177.276 83.5967C177.374 83.3651 177.482 83.1398 177.602 82.9191C177.721 82.6999 177.852 82.4853 177.993 82.2785C178.135 82.0701 178.286 81.8694 178.448 81.6765C178.609 81.4835 178.78 81.2983 178.96 81.1223C179.139 80.9464 179.328 80.7781 179.524 80.6191C179.721 80.4617 179.926 80.312 180.136 80.1746C180.349 80.0357 180.566 79.9076 180.791 79.7887C181.014 79.6714 181.244 79.5649 181.479 79.4692C181.715 79.3735 181.954 79.2901 182.198 79.2176C182.44 79.145 182.687 79.0848 182.936 79.0354C183.186 78.986 183.438 78.9505 183.691 78.9258C183.943 78.9011 184.197 78.8888 184.451 78.8888C184.706 78.8888 184.959 78.9011 185.212 78.9258C185.466 78.9505 185.717 78.986 185.966 79.0354C186.216 79.0848 186.463 79.145 186.706 79.2176C186.949 79.2901 187.189 79.3735 187.423 79.4692C187.659 79.5649 187.889 79.6714 188.112 79.7887C188.337 79.9076 188.554 80.0357 188.767 80.1746C188.978 80.312 189.182 80.4617 189.379 80.6191C189.575 80.7781 189.763 80.9464 189.944 81.1223C190.123 81.2983 190.293 81.4835 190.455 81.6765C190.617 81.8694 190.768 82.0701 190.91 82.2785C191.05 82.4853 191.18 82.6999 191.301 82.9191C191.421 83.1398 191.53 83.3651 191.627 83.5967C191.725 83.8267 191.81 84.0613 191.884 84.3006C191.958 84.5398 192.019 84.7821 192.069 85.026C192.118 85.2715 192.156 85.5184 192.181 85.7669C192.205 86.0155 192.217 86.264 192.217 86.514Z" fill="#60919E"/>
<path d="M164.915 77.5382C164.915 77.8053 164.901 78.0723 164.874 78.3378C164.848 78.6048 164.808 78.8688 164.755 79.1312C164.703 79.3921 164.637 79.6514 164.556 79.9076C164.478 80.1623 164.387 80.4139 164.283 80.6609C164.179 80.9078 164.062 81.1486 163.933 81.3848C163.806 81.621 163.666 81.8494 163.515 82.0717C163.364 82.294 163.202 82.5085 163.029 82.7154C162.856 82.9222 162.673 83.1198 162.481 83.3081C162.288 83.4964 162.086 83.677 161.877 83.8453C161.666 84.015 161.447 84.174 161.221 84.3222C160.996 84.4719 160.761 84.6093 160.522 84.7344C160.281 84.8609 160.036 84.9751 159.784 85.077C159.532 85.1789 159.278 85.2684 159.016 85.3471C158.757 85.4243 158.492 85.4892 158.225 85.5416C157.959 85.5941 157.69 85.6327 157.419 85.6589C157.149 85.6852 156.877 85.6975 156.604 85.6975C156.332 85.6975 156.06 85.6852 155.789 85.6589C155.519 85.6327 155.25 85.5941 154.984 85.5416C154.716 85.4892 154.452 85.4243 154.192 85.3471C153.931 85.2684 153.676 85.1789 153.424 85.077C153.173 84.9751 152.927 84.8609 152.687 84.7344C152.447 84.6093 152.213 84.4719 151.988 84.3222C151.761 84.174 151.543 84.015 151.332 83.8453C151.123 83.677 150.921 83.4964 150.728 83.3081C150.536 83.1198 150.353 82.9222 150.18 82.7154C150.007 82.5085 149.847 82.294 149.694 82.0717C149.543 81.8494 149.403 81.621 149.275 81.3848C149.146 81.1486 149.031 80.9078 148.926 80.6609C148.822 80.4139 148.731 80.1623 148.652 79.9076C148.572 79.6514 148.506 79.3921 148.454 79.1312C148.401 78.8688 148.361 78.6048 148.334 78.3378C148.308 78.0723 148.294 77.8053 148.294 77.5382C148.294 77.2712 148.308 77.0041 148.334 76.7387C148.361 76.4732 148.401 76.2092 148.454 75.9468C148.506 75.6844 148.572 75.4266 148.652 75.1704C148.731 74.9142 148.822 74.6625 148.926 74.4156C149.031 74.1686 149.146 73.9278 149.275 73.6916C149.403 73.457 149.543 73.227 149.694 73.0063C149.847 72.784 150.007 72.5695 150.18 72.3626C150.353 72.1558 150.536 71.9582 150.728 71.7699C150.921 71.58 151.123 71.401 151.332 71.2312C151.543 71.0614 151.761 70.9024 151.988 70.7542C152.213 70.606 152.447 70.4687 152.687 70.3421C152.927 70.2171 153.173 70.1028 153.424 70.001C153.676 69.8975 153.931 69.808 154.192 69.7308C154.452 69.6537 154.716 69.5888 154.984 69.5364C155.25 69.4839 155.519 69.4453 155.789 69.419C156.06 69.3928 156.332 69.3789 156.604 69.3789C156.877 69.3789 157.149 69.3928 157.419 69.419C157.69 69.4453 157.959 69.4839 158.225 69.5364C158.492 69.5888 158.757 69.6537 159.016 69.7308C159.278 69.808 159.532 69.8975 159.784 70.001C160.036 70.1028 160.281 70.2171 160.522 70.3421C160.761 70.4687 160.996 70.606 161.221 70.7542C161.447 70.9024 161.666 71.0614 161.877 71.2312C162.086 71.401 162.288 71.58 162.481 71.7699C162.673 71.9582 162.856 72.1558 163.029 72.3626C163.202 72.5695 163.364 72.784 163.515 73.0063C163.666 73.227 163.806 73.457 163.933 73.6916C164.062 73.9278 164.179 74.1686 164.283 74.4156C164.387 74.6625 164.478 74.9142 164.556 75.1704C164.637 75.4266 164.703 75.6844 164.755 75.9468C164.808 76.2092 164.848 76.4732 164.874 76.7387C164.901 77.0041 164.915 77.2712 164.915 77.5382Z" fill="#EFFFFF"/>
<path d="M161.749 77.5382C161.749 77.8701 161.716 78.1989 161.65 78.5246C161.584 78.8487 161.487 79.1652 161.358 79.4723C161.229 79.778 161.07 80.0697 160.883 80.3444C160.694 80.6207 160.481 80.8754 160.242 81.1101C160.003 81.3447 159.743 81.5546 159.463 81.7383C159.182 81.9235 158.886 82.0779 158.573 82.206C158.261 82.3326 157.939 82.4283 157.608 82.4931C157.276 82.5579 156.943 82.5903 156.604 82.5903C156.266 82.5903 155.933 82.5579 155.601 82.4931C155.27 82.4283 154.948 82.3326 154.636 82.206C154.323 82.0779 154.027 81.9235 153.745 81.7383C153.465 81.5546 153.206 81.3447 152.967 81.1101C152.727 80.8754 152.515 80.6207 152.326 80.3444C152.139 80.0697 151.98 79.778 151.851 79.4723C151.722 79.1652 151.624 78.8487 151.558 78.5246C151.492 78.1989 151.459 77.8701 151.459 77.5382C151.459 77.2064 151.492 76.8791 151.558 76.5534C151.624 76.2277 151.722 75.9129 151.851 75.6057C151.98 75.2985 152.139 75.0083 152.326 74.732C152.515 74.4573 152.727 74.201 152.967 73.9664C153.206 73.7318 153.465 73.5234 153.745 73.3382C154.027 73.1545 154.323 72.9986 154.636 72.872C154.948 72.7454 155.27 72.6497 155.601 72.5849C155.933 72.5201 156.266 72.4877 156.604 72.4877C156.943 72.4877 157.276 72.5201 157.608 72.5849C157.939 72.6497 158.261 72.7454 158.573 72.872C158.886 72.9986 159.182 73.1545 159.463 73.3382C159.743 73.5234 160.003 73.7318 160.242 73.9664C160.481 74.201 160.694 74.4573 160.883 74.732C161.07 75.0083 161.229 75.2985 161.358 75.6057C161.487 75.9129 161.584 76.2277 161.65 76.5534C161.716 76.8791 161.749 77.2064 161.749 77.5382Z" fill="#1F1D1E"/>
<path d="M182.611 77.5382C182.611 77.8053 182.599 78.0723 182.572 78.3378C182.545 78.6048 182.506 78.8688 182.452 79.1312C182.399 79.3921 182.333 79.6514 182.254 79.9076C182.176 80.1623 182.084 80.4139 181.979 80.6609C181.875 80.9078 181.759 81.1486 181.631 81.3848C181.502 81.621 181.362 81.8494 181.211 82.0717C181.06 82.294 180.898 82.5085 180.726 82.7154C180.553 82.9222 180.371 83.1198 180.177 83.3081C179.985 83.4964 179.784 83.677 179.573 83.8453C179.364 84.015 179.145 84.174 178.919 84.3222C178.692 84.4719 178.459 84.6093 178.218 84.7344C177.979 84.8609 177.734 84.9751 177.482 85.077C177.23 85.1789 176.974 85.2684 176.714 85.3471C176.453 85.4243 176.19 85.4892 175.923 85.5416C175.655 85.5941 175.388 85.6327 175.116 85.6589C174.845 85.6852 174.574 85.6975 174.302 85.6975C174.03 85.6975 173.758 85.6852 173.487 85.6589C173.217 85.6327 172.947 85.5941 172.68 85.5416C172.414 85.4892 172.15 85.4243 171.889 85.3471C171.629 85.2684 171.372 85.1789 171.121 85.077C170.871 84.9751 170.624 84.8609 170.384 84.7344C170.144 84.6093 169.911 84.4719 169.684 84.3222C169.458 84.174 169.24 84.015 169.03 83.8453C168.819 83.677 168.617 83.4964 168.425 83.3081C168.233 83.1198 168.051 82.9222 167.878 82.7154C167.705 82.5085 167.543 82.294 167.392 82.0717C167.241 81.8494 167.101 81.621 166.973 81.3848C166.844 81.1486 166.728 80.9078 166.624 80.6609C166.52 80.4139 166.429 80.1623 166.349 79.9076C166.27 79.6514 166.204 79.3921 166.15 79.1312C166.098 78.8688 166.057 78.6048 166.031 78.3378C166.004 78.0723 165.991 77.8053 165.991 77.5382C165.991 77.2712 166.004 77.0041 166.031 76.7387C166.057 76.4732 166.098 76.2092 166.15 75.9468C166.204 75.6844 166.27 75.4266 166.349 75.1704C166.429 74.9142 166.52 74.6625 166.624 74.4156C166.728 74.1686 166.844 73.9278 166.973 73.6916C167.101 73.457 167.241 73.227 167.392 73.0063C167.543 72.784 167.705 72.5695 167.878 72.3626C168.051 72.1558 168.233 71.9582 168.425 71.7699C168.617 71.58 168.819 71.401 169.03 71.2312C169.24 71.0614 169.458 70.9024 169.684 70.7542C169.911 70.606 170.144 70.4687 170.384 70.3421C170.624 70.2171 170.871 70.1028 171.121 70.001C171.372 69.8975 171.629 69.808 171.889 69.7308C172.15 69.6537 172.414 69.5888 172.68 69.5364C172.947 69.4839 173.217 69.4453 173.487 69.419C173.758 69.3928 174.03 69.3789 174.302 69.3789C174.574 69.3789 174.845 69.3928 175.116 69.419C175.388 69.4453 175.655 69.4839 175.923 69.5364C176.19 69.5888 176.453 69.6537 176.714 69.7308C176.974 69.808 177.23 69.8975 177.482 70.001C177.734 70.1028 177.979 70.2171 178.218 70.3421C178.459 70.4687 178.692 70.606 178.919 70.7542C179.145 70.9024 179.364 71.0614 179.573 71.2312C179.784 71.401 179.985 71.58 180.177 71.7699C180.371 71.9582 180.553 72.1558 180.726 72.3626C180.898 72.5695 181.06 72.784 181.211 73.0063C181.362 73.227 181.502 73.457 181.631 73.6916C181.759 73.9278 181.875 74.1686 181.979 74.4156C182.084 74.6625 182.176 74.9142 182.254 75.1704C182.333 75.4266 182.399 75.6844 182.452 75.9468C182.506 76.2092 182.545 76.4732 182.572 76.7387C182.599 77.0041 182.611 77.2712 182.611 77.5382Z" fill="#EFFFFF"/>
<path d="M179.446 77.5382C179.446 77.8701 179.413 78.1989 179.348 78.5246C179.282 78.8487 179.185 79.1652 179.055 79.4723C178.925 79.778 178.768 80.0697 178.579 80.3444C178.392 80.6207 178.179 80.8754 177.94 81.1101C177.701 81.3447 177.441 81.5546 177.16 81.7383C176.879 81.9235 176.582 82.0779 176.271 82.206C175.959 82.3326 175.636 82.4283 175.306 82.4931C174.974 82.5579 174.639 82.5903 174.302 82.5903C173.964 82.5903 173.629 82.5579 173.298 82.4931C172.966 82.4283 172.645 82.3326 172.332 82.206C172.021 82.0779 171.725 81.9235 171.443 81.7383C171.163 81.5546 170.902 81.3447 170.664 81.1101C170.425 80.8754 170.211 80.6207 170.024 80.3444C169.837 80.0697 169.678 79.778 169.549 79.4723C169.42 79.1652 169.322 78.8487 169.256 78.5246C169.19 78.1989 169.157 77.8701 169.157 77.5382C169.157 77.2064 169.19 76.8791 169.256 76.5534C169.322 76.2277 169.42 75.9129 169.549 75.6057C169.678 75.2985 169.837 75.0083 170.024 74.732C170.211 74.4573 170.425 74.201 170.664 73.9664C170.902 73.7318 171.163 73.5234 171.443 73.3382C171.725 73.1545 172.021 72.9986 172.332 72.872C172.645 72.7454 172.966 72.6497 173.298 72.5849C173.629 72.5201 173.964 72.4877 174.302 72.4877C174.639 72.4877 174.974 72.5201 175.306 72.5849C175.636 72.6497 175.959 72.7454 176.271 72.872C176.582 72.9986 176.879 73.1545 177.16 73.3382C177.441 73.5234 177.701 73.7318 177.94 73.9664C178.179 74.201 178.392 74.4573 178.579 74.732C178.768 75.0083 178.925 75.2985 179.055 75.6057C179.185 75.9129 179.282 76.2277 179.348 76.5534C179.413 76.8791 179.446 77.2064 179.446 77.5382Z" fill="#1F1D1E"/>
<path d="M180.536 96.5874C178.447 98.7978 174.803 100.814 169.157 101.666C161.6 102.806 156.003 99.8628 153.019 96.4716C149.132 92.0585 149.675 86.886 156.084 88.9868C170.301 93.65 177.444 88.9868 177.444 88.9868C182.511 86.5434 184.888 91.9875 180.535 96.5874H180.536Z" fill="#1F1D1E"/>
<path d="M180.536 96.5874C178.447 98.7978 174.803 100.814 169.157 101.666C161.6 102.806 156.003 99.8629 153.019 96.4717C155.898 94.587 160.944 93.3367 166.69 93.3367C172.438 93.3367 177.688 94.6379 180.536 96.5874Z" fill="#EF6946"/>
</svg>
