<svg width="38" height="34" viewBox="0 0 38 34" fill="none" xmlns="http://www.w3.org/2000/svg">
<mask id="mask0_915_409" style="mask-type:luminance" maskUnits="userSpaceOnUse" x="10" y="27" width="8" height="7">
<path d="M10.2615 27.0028H17.342V33.0962H10.2615V27.0028Z" fill="white"/>
</mask>
<g mask="url(#mask0_915_409)">
<path d="M17.3057 27.0809V33.0594H14.341C14.341 33.0594 11.8762 33.1301 10.9119 33.0594C9.94709 32.9892 10.4116 32.2179 10.4116 32.2179L12.7336 30.2886V27.0809H17.3057Z" fill="#60919E"/>
</g>
<path d="M21.271 26.897L23.0757 32.6066L25.9073 31.7439C25.9073 31.7439 28.2827 31.0939 29.1824 30.7459C30.0825 30.3984 29.4057 29.7967 29.4057 29.7967L26.6057 28.6299L25.6373 25.5663L21.2706 26.897H21.271Z" fill="#60919E"/>
<mask id="mask1_915_409" style="mask-type:luminance" maskUnits="userSpaceOnUse" x="26" y="9" width="12" height="11">
<path d="M26.6298 9.63745H38V19.8523H26.6298V9.63745Z" fill="white"/>
</mask>
<g mask="url(#mask1_915_409)">
<path d="M26.7311 19.0384C26.7311 19.0384 37.5396 23.6151 38.0001 10.8613C38.0001 10.8613 37.8622 8.6643 36.8653 11.2455C36.8653 11.2455 36.8303 8.04143 35.7618 10.9966C35.7618 10.9966 35.277 8.31875 34.5445 10.7113C33.8115 13.1038 34.0218 15.0019 32.2094 15.8406C32.2094 15.8406 29.8967 16.0513 28.3397 15.956C26.7827 15.8606 26.7311 19.0384 26.7311 19.0384Z" fill="#53BDD9"/>
</g>
<path d="M12.7336 20.0973H17.3057V30.2886H12.7336V20.0973Z" fill="#53BDD9"/>
<path d="M26.6061 28.63L22.2394 29.9607L19.1629 20.2271L23.5296 18.8967L26.6061 28.63Z" fill="#53BDD9"/>
<mask id="mask2_915_409" style="mask-type:luminance" maskUnits="userSpaceOnUse" x="4" y="0" width="30" height="24">
<path d="M4.43054 0H33.1688V23.2233H4.43054V0Z" fill="white"/>
</mask>
<g mask="url(#mask2_915_409)">
<path d="M13.9136 6.29252C13.9136 6.29252 15.288 -1.41133 19.8389 0.235822C24.3899 1.88217 23.6691 6.32365 23.6691 6.32365C23.6691 6.32365 24.5936 -0.209882 29.4289 0.827965C34.2646 1.86581 34.0323 10.0241 30.7601 15.5785C27.488 21.1328 18.4349 25.603 10.3929 21.6966C2.35135 17.7898 3.66428 4.41993 7.70804 3.01179C11.7514 1.60366 13.914 6.29252 13.914 6.29252H13.9136Z" fill="#53BDD9"/>
</g>
<mask id="mask3_915_409" style="mask-type:luminance" maskUnits="userSpaceOnUse" x="0" y="9" width="10" height="12">
<path d="M0 9.12671H9.74089V20.4652H0V9.12671Z" fill="white"/>
</mask>
<g mask="url(#mask3_915_409)">
<path d="M9.56073 20.2545C9.56073 20.2545 -1.98769 22.4922 0.29979 9.92954C0.29979 9.92954 0.906231 7.81075 1.32639 10.5404C1.32639 10.5404 2.04834 7.41532 2.45833 10.5249C2.45833 10.5249 3.50689 8.00747 3.70945 10.4977C3.91241 12.9884 3.29946 14.8004 4.89142 15.9954C4.89142 15.9954 7.1069 16.6797 8.64965 16.9088C10.192 17.1374 9.56073 20.2545 9.56073 20.2545Z" fill="#53BDD9"/>
</g>
<path d="M14.9243 13.8336C14.9243 13.8982 14.9211 13.9625 14.9146 14.0267C14.9085 14.0909 14.8987 14.1548 14.8857 14.2182C14.8731 14.2813 14.8572 14.3439 14.8381 14.4058C14.819 14.4676 14.7966 14.5283 14.7714 14.5877C14.7466 14.6476 14.7185 14.7058 14.6872 14.7629C14.6563 14.8196 14.6225 14.875 14.5859 14.9289C14.5497 14.9824 14.5103 15.0342 14.4688 15.0841C14.4269 15.134 14.383 15.1819 14.3362 15.2273C14.2898 15.2732 14.2414 15.3163 14.1906 15.3574C14.1398 15.3981 14.0869 15.4368 14.032 15.4723C13.9775 15.5083 13.9213 15.5414 13.8632 15.5721C13.805 15.6024 13.7456 15.63 13.685 15.6547C13.6244 15.6794 13.5626 15.701 13.4996 15.7197C13.4365 15.7385 13.3731 15.7545 13.3084 15.7668C13.2441 15.7796 13.179 15.7888 13.1136 15.7952C13.0481 15.8015 12.9826 15.8047 12.9167 15.8047C12.8512 15.8047 12.7853 15.8015 12.7198 15.7952C12.6548 15.7888 12.5897 15.7796 12.525 15.7668C12.4608 15.7545 12.3969 15.7385 12.3338 15.7197C12.2712 15.701 12.2094 15.6794 12.1484 15.6547C12.0878 15.63 12.0284 15.6024 11.9702 15.5721C11.9125 15.5414 11.8559 15.5083 11.8014 15.4723C11.7469 15.4368 11.6941 15.3981 11.6432 15.3574C11.5924 15.3163 11.5436 15.2732 11.4972 15.2273C11.4508 15.1819 11.4065 15.134 11.365 15.0841C11.3231 15.0342 11.2841 14.9824 11.2475 14.9289C11.2109 14.875 11.1771 14.8196 11.1462 14.7629C11.1153 14.7058 11.0872 14.6476 11.062 14.5877C11.0368 14.5283 11.0148 14.4676 10.9957 14.4058C10.9766 14.3439 10.9607 14.2813 10.9477 14.2182C10.9351 14.1548 10.9253 14.0909 10.9188 14.0267C10.9123 13.9625 10.9091 13.8982 10.9091 13.8336C10.9091 13.7689 10.9123 13.7047 10.9188 13.6405C10.9253 13.5762 10.9351 13.5124 10.9477 13.4489C10.9607 13.3859 10.9766 13.3232 10.9957 13.2614C11.0148 13.1995 11.0368 13.1389 11.062 13.0794C11.0872 13.0196 11.1153 12.9613 11.1462 12.9043C11.1771 12.8476 11.2109 12.7921 11.2475 12.7387C11.2841 12.6848 11.3231 12.6329 11.365 12.5831C11.4065 12.5332 11.4508 12.4853 11.4972 12.4398C11.5436 12.3943 11.5924 12.3508 11.6432 12.3097C11.6941 12.269 11.7469 12.2303 11.8014 12.1948C11.8559 12.1589 11.9125 12.1258 11.9702 12.0951C12.0284 12.0647 12.0878 12.0372 12.1484 12.0125C12.2094 11.9877 12.2712 11.9662 12.3338 11.9474C12.3969 11.9287 12.4608 11.9131 12.525 11.9003C12.5897 11.8876 12.6548 11.8784 12.7198 11.872C12.7853 11.8656 12.8512 11.8624 12.9167 11.8624C12.9826 11.8624 13.0481 11.8656 13.1136 11.872C13.179 11.8784 13.2441 11.8876 13.3084 11.9003C13.3731 11.9131 13.4365 11.9287 13.4996 11.9474C13.5626 11.9662 13.6244 11.9877 13.685 12.0125C13.7456 12.0372 13.805 12.0647 13.8632 12.0951C13.9213 12.1258 13.9775 12.1589 14.032 12.1948C14.0869 12.2303 14.1398 12.269 14.1906 12.3097C14.2414 12.3508 14.2898 12.3943 14.3362 12.4398C14.383 12.4853 14.4269 12.5332 14.4688 12.5831C14.5103 12.6329 14.5497 12.6848 14.5859 12.7387C14.6225 12.7921 14.6563 12.8476 14.6872 12.9043C14.7185 12.9613 14.7466 13.0196 14.7714 13.0794C14.7966 13.1389 14.819 13.1995 14.8381 13.2614C14.8572 13.3232 14.8731 13.3859 14.8857 13.4489C14.8987 13.5124 14.9085 13.5762 14.9146 13.6405C14.9211 13.7047 14.9243 13.7689 14.9243 13.8336Z" fill="#60919E"/>
<path d="M24.614 13.8336C24.614 13.8982 24.6107 13.9625 24.6046 14.0267C24.5981 14.0909 24.5884 14.1548 24.5757 14.2182C24.5627 14.2813 24.5469 14.3439 24.5278 14.4058C24.5086 14.4676 24.4867 14.5283 24.4615 14.5877C24.4362 14.6476 24.4082 14.7058 24.3773 14.7629C24.3459 14.8196 24.3122 14.875 24.276 14.9289C24.2394 14.9824 24.2003 15.0342 24.1584 15.0841C24.1165 15.134 24.0726 15.1819 24.0262 15.2273C23.9795 15.2732 23.9311 15.3163 23.8802 15.3574C23.8294 15.3981 23.7765 15.4368 23.722 15.4723C23.6671 15.5083 23.611 15.5414 23.5528 15.5721C23.4951 15.6024 23.4357 15.63 23.3747 15.6547C23.3141 15.6794 23.2522 15.701 23.1892 15.7197C23.1266 15.7385 23.0627 15.7545 22.998 15.7668C22.9338 15.7796 22.8687 15.7888 22.8032 15.7952C22.7377 15.8015 22.6722 15.8047 22.6063 15.8047C22.5409 15.8047 22.475 15.8015 22.4099 15.7952C22.3444 15.7888 22.2793 15.7796 22.2147 15.7668C22.1504 15.7545 22.0865 15.7385 22.0239 15.7197C21.9608 15.701 21.899 15.6794 21.838 15.6547C21.7774 15.63 21.718 15.6024 21.6603 15.5721C21.6021 15.5414 21.546 15.5083 21.4911 15.4723C21.4366 15.4368 21.3837 15.3981 21.3329 15.3574C21.282 15.3163 21.2332 15.2732 21.1868 15.2273C21.1405 15.1819 21.0961 15.134 21.0546 15.0841C21.0127 15.0342 20.9737 14.9824 20.9371 14.9289C20.9005 14.875 20.8667 14.8196 20.8358 14.7629C20.8049 14.7058 20.7768 14.6476 20.7516 14.5877C20.7264 14.5283 20.7044 14.4676 20.6853 14.4058C20.6662 14.3439 20.6503 14.2813 20.6373 14.2182C20.6247 14.1548 20.615 14.0909 20.6085 14.0267C20.6019 13.9625 20.5987 13.8982 20.5987 13.8336C20.5987 13.7689 20.6019 13.7047 20.6085 13.6405C20.615 13.5762 20.6247 13.5124 20.6373 13.4489C20.6503 13.3859 20.6662 13.3232 20.6853 13.2614C20.7044 13.1995 20.7264 13.1389 20.7516 13.0794C20.7768 13.0196 20.8049 12.9613 20.8358 12.9043C20.8667 12.8476 20.9005 12.7921 20.9371 12.7387C20.9737 12.6848 21.0127 12.6329 21.0546 12.5831C21.0961 12.5332 21.1405 12.4853 21.1868 12.4398C21.2332 12.3943 21.282 12.3508 21.3329 12.3097C21.3837 12.269 21.4366 12.2303 21.4911 12.1948C21.546 12.1589 21.6021 12.1258 21.6603 12.0951C21.718 12.0647 21.7774 12.0372 21.838 12.0125C21.899 11.9877 21.9608 11.9662 22.0239 11.9474C22.0865 11.9287 22.1504 11.9131 22.2147 11.9003C22.2793 11.8876 22.3444 11.8784 22.4099 11.872C22.475 11.8656 22.5409 11.8624 22.6063 11.8624C22.6722 11.8624 22.7377 11.8656 22.8032 11.872C22.8687 11.8784 22.9338 11.8876 22.998 11.9003C23.0627 11.9131 23.1266 11.9287 23.1892 11.9474C23.2522 11.9662 23.3141 11.9877 23.3747 12.0125C23.4357 12.0372 23.4951 12.0647 23.5528 12.0951C23.611 12.1258 23.6671 12.1589 23.722 12.1948C23.7765 12.2303 23.8294 12.269 23.8802 12.3097C23.9311 12.3508 23.9795 12.3943 24.0262 12.4398C24.0726 12.4853 24.1165 12.5332 24.1584 12.5831C24.2003 12.6329 24.2394 12.6848 24.276 12.7387C24.3122 12.7921 24.3459 12.8476 24.3773 12.9043C24.4082 12.9613 24.4362 13.0196 24.4615 13.0794C24.4867 13.1389 24.5086 13.1995 24.5278 13.2614C24.5469 13.3232 24.5627 13.3859 24.5757 13.4489C24.5884 13.5124 24.5981 13.5762 24.6046 13.6405C24.6107 13.7047 24.614 13.7689 24.614 13.8336Z" fill="#60919E"/>
<path d="M17.5563 11.5133C17.5563 11.5823 17.5527 11.6513 17.5458 11.72C17.5388 11.789 17.5287 11.8572 17.5148 11.9251C17.5014 11.9925 17.4843 12.0595 17.4636 12.1258C17.4433 12.1916 17.4197 12.2566 17.3928 12.3205C17.366 12.3843 17.3359 12.4466 17.3025 12.5076C17.2696 12.5687 17.2334 12.6277 17.1943 12.6852C17.1553 12.7426 17.1134 12.7981 17.0687 12.8516C17.0239 12.905 16.9767 12.9561 16.9271 13.0048C16.8771 13.0535 16.825 13.1002 16.7709 13.1437C16.7164 13.1875 16.6599 13.2286 16.6013 13.2669C16.5432 13.3057 16.4825 13.3412 16.4207 13.3735C16.3585 13.4062 16.295 13.4357 16.23 13.4621C16.1649 13.4884 16.099 13.5115 16.0315 13.5319C15.9644 13.5518 15.896 13.5686 15.8269 13.5822C15.7582 13.5957 15.6886 13.6057 15.6186 13.6125C15.5487 13.6193 15.4783 13.6225 15.408 13.6225C15.3376 13.6225 15.2672 13.6193 15.1973 13.6125C15.1273 13.6057 15.0578 13.5957 14.989 13.5822C14.9199 13.5686 14.8515 13.5518 14.7844 13.5319C14.7169 13.5115 14.651 13.4884 14.5859 13.4621C14.5209 13.4357 14.4574 13.4062 14.3952 13.3735C14.3334 13.3412 14.2728 13.3057 14.2146 13.2669C14.156 13.2286 14.0995 13.1875 14.045 13.1437C13.9909 13.1002 13.9388 13.0535 13.8888 13.0048C13.8392 12.9561 13.792 12.905 13.7473 12.8516C13.7025 12.7981 13.661 12.7426 13.6216 12.6852C13.5825 12.6277 13.5463 12.5687 13.5134 12.5076C13.48 12.4466 13.4503 12.3843 13.4231 12.3205C13.3962 12.2566 13.3727 12.1916 13.3523 12.1258C13.3316 12.0595 13.3145 11.9925 13.3011 11.9251C13.2872 11.8572 13.2771 11.789 13.2702 11.72C13.2632 11.6513 13.2596 11.5823 13.2596 11.5133C13.2596 11.4442 13.2632 11.3752 13.2702 11.3066C13.2771 11.2379 13.2872 11.1697 13.3011 11.1019C13.3145 11.034 13.3316 10.9674 13.3523 10.9012C13.3727 10.8349 13.3962 10.7699 13.4231 10.706C13.4503 10.6422 13.48 10.58 13.5134 10.5189C13.5463 10.4583 13.5825 10.3988 13.6216 10.3417C13.661 10.2843 13.7025 10.2288 13.7473 10.1754C13.792 10.1219 13.8392 10.0708 13.8888 10.0221C13.9388 9.97305 13.9909 9.92677 14.045 9.88287C14.0995 9.83898 14.156 9.79788 14.2146 9.75958C14.2728 9.72127 14.3334 9.68576 14.3952 9.65304C14.4574 9.62072 14.5209 9.59119 14.5859 9.56486C14.651 9.53812 14.7169 9.51498 14.7844 9.49503C14.8515 9.47508 14.9199 9.45832 14.989 9.44475C15.0578 9.43119 15.1273 9.42121 15.1973 9.41443C15.2672 9.40764 15.3376 9.40405 15.408 9.40405C15.4783 9.40405 15.5487 9.40764 15.6186 9.41443C15.6886 9.42121 15.7582 9.43119 15.8269 9.44475C15.896 9.45832 15.9644 9.47508 16.0315 9.49503C16.099 9.51498 16.1649 9.53812 16.23 9.56486C16.295 9.59119 16.3585 9.62072 16.4207 9.65304C16.4825 9.68576 16.5432 9.72127 16.6013 9.75958C16.6599 9.79788 16.7164 9.83898 16.7709 9.88287C16.825 9.92677 16.8771 9.97305 16.9271 10.0221C16.9767 10.0708 17.0239 10.1219 17.0687 10.1754C17.1134 10.2288 17.1553 10.2843 17.1943 10.3417C17.2334 10.3988 17.2696 10.4583 17.3025 10.5189C17.3359 10.58 17.366 10.6422 17.3928 10.706C17.4197 10.7699 17.4433 10.8349 17.4636 10.9012C17.4843 10.9674 17.5014 11.034 17.5148 11.1019C17.5287 11.1697 17.5388 11.2379 17.5458 11.3066C17.5527 11.3752 17.5563 11.4442 17.5563 11.5133Z" fill="#EFFFFF"/>
<path d="M16.7379 11.5132C16.7379 11.599 16.7294 11.684 16.7123 11.7682C16.6952 11.852 16.67 11.9338 16.6366 12.0132C16.6033 12.0922 16.5622 12.1676 16.5138 12.2386C16.465 12.3101 16.4101 12.3759 16.3483 12.4366C16.2865 12.4972 16.2193 12.5515 16.1469 12.599C16.0741 12.6468 15.9977 12.6867 15.9167 12.7199C15.8362 12.7526 15.7528 12.7773 15.6674 12.7941C15.5816 12.8108 15.4954 12.8192 15.4079 12.8192C15.3205 12.8192 15.2342 12.8108 15.1484 12.7941C15.063 12.7773 14.9796 12.7526 14.8991 12.7199C14.8181 12.6867 14.7417 12.6468 14.6689 12.599C14.5965 12.5515 14.5294 12.4972 14.4675 12.4366C14.4057 12.3759 14.3508 12.3101 14.302 12.2386C14.2536 12.1676 14.2125 12.0922 14.1792 12.0132C14.1458 11.9338 14.1206 11.852 14.1035 11.7682C14.0864 11.684 14.0779 11.599 14.0779 11.5132C14.0779 11.4274 14.0864 11.3428 14.1035 11.2587C14.1206 11.1745 14.1458 11.0931 14.1792 11.0137C14.2125 10.9343 14.2536 10.8592 14.302 10.7878C14.3508 10.7168 14.4057 10.6506 14.4675 10.5899C14.5294 10.5293 14.5965 10.4754 14.6689 10.4275C14.7417 10.38 14.8181 10.3397 14.8991 10.307C14.9796 10.2743 15.063 10.2495 15.1484 10.2328C15.2342 10.216 15.3205 10.2076 15.4079 10.2076C15.4954 10.2076 15.5816 10.216 15.6674 10.2328C15.7528 10.2495 15.8362 10.2743 15.9167 10.307C15.9977 10.3397 16.0741 10.38 16.1469 10.4275C16.2193 10.4754 16.2865 10.5293 16.3483 10.5899C16.4101 10.6506 16.465 10.7168 16.5138 10.7878C16.5622 10.8592 16.6033 10.9343 16.6366 11.0137C16.67 11.0931 16.6952 11.1745 16.7123 11.2587C16.7294 11.3428 16.7379 11.4274 16.7379 11.5132Z" fill="#1F1D1E"/>
<path d="M22.1308 11.5133C22.1308 11.5823 22.1276 11.6513 22.1206 11.72C22.1137 11.789 22.1036 11.8572 22.0897 11.9251C22.0759 11.9925 22.0588 12.0595 22.0385 12.1258C22.0181 12.1916 21.9946 12.2566 21.9673 12.3205C21.9405 12.3843 21.9104 12.4466 21.8774 12.5076C21.8441 12.5687 21.8079 12.6277 21.7688 12.6852C21.7298 12.7426 21.6879 12.7981 21.6435 12.8516C21.5988 12.905 21.5516 12.9561 21.5016 13.0048C21.452 13.0535 21.3999 13.1002 21.3454 13.1437C21.2913 13.1875 21.2348 13.2286 21.1762 13.2669C21.1176 13.3057 21.0574 13.3412 20.9952 13.3735C20.9334 13.4062 20.8699 13.4357 20.8049 13.4621C20.7398 13.4884 20.6735 13.5115 20.6064 13.5319C20.5389 13.5518 20.4709 13.5686 20.4018 13.5822C20.3326 13.5957 20.2635 13.6057 20.1931 13.6125C20.1232 13.6193 20.0532 13.6225 19.9828 13.6225C19.9125 13.6225 19.8421 13.6193 19.7722 13.6125C19.7022 13.6057 19.6326 13.5957 19.5635 13.5822C19.4948 13.5686 19.4264 13.5518 19.3589 13.5319C19.2918 13.5115 19.2255 13.4884 19.1604 13.4621C19.0958 13.4357 19.0319 13.4062 18.9701 13.3735C18.9078 13.3412 18.8476 13.3057 18.7891 13.2669C18.7305 13.2286 18.6744 13.1875 18.6199 13.1437C18.5654 13.1002 18.5133 13.0535 18.4637 13.0048C18.4141 12.9561 18.3669 12.905 18.3221 12.8516C18.2774 12.7981 18.2355 12.7426 18.1965 12.6852C18.1574 12.6277 18.1212 12.5687 18.0883 12.5076C18.0549 12.4466 18.0248 12.3843 17.998 12.3205C17.9711 12.2566 17.9475 12.1916 17.9268 12.1258C17.9065 12.0595 17.8894 11.9925 17.8756 11.9251C17.8621 11.8572 17.8516 11.789 17.8446 11.72C17.8377 11.6513 17.8345 11.5823 17.8345 11.5133C17.8345 11.4442 17.8377 11.3752 17.8446 11.3066C17.8516 11.2379 17.8621 11.1697 17.8756 11.1019C17.8894 11.034 17.9065 10.9674 17.9268 10.9012C17.9475 10.8349 17.9711 10.7699 17.998 10.706C18.0248 10.6422 18.0549 10.58 18.0883 10.5189C18.1212 10.4583 18.1574 10.3988 18.1965 10.3417C18.2355 10.2843 18.2774 10.2288 18.3221 10.1754C18.3669 10.1219 18.4141 10.0708 18.4637 10.0221C18.5133 9.97305 18.5654 9.92677 18.6199 9.88287C18.6744 9.83898 18.7305 9.79788 18.7891 9.75958C18.8476 9.72127 18.9078 9.68576 18.9701 9.65304C19.0319 9.62072 19.0958 9.59119 19.1604 9.56486C19.2255 9.53812 19.2918 9.51498 19.3589 9.49503C19.4264 9.47508 19.4948 9.45832 19.5635 9.44475C19.6326 9.43119 19.7022 9.42121 19.7722 9.41443C19.8421 9.40764 19.9125 9.40405 19.9828 9.40405C20.0532 9.40405 20.1232 9.40764 20.1931 9.41443C20.2635 9.42121 20.3326 9.43119 20.4018 9.44475C20.4709 9.45832 20.5389 9.47508 20.6064 9.49503C20.6735 9.51498 20.7398 9.53812 20.8049 9.56486C20.8699 9.59119 20.9334 9.62072 20.9952 9.65304C21.0574 9.68576 21.1176 9.72127 21.1762 9.75958C21.2348 9.79788 21.2913 9.83898 21.3454 9.88287C21.3999 9.92677 21.452 9.97305 21.5016 10.0221C21.5516 10.0708 21.5988 10.1219 21.6435 10.1754C21.6879 10.2288 21.7298 10.2843 21.7688 10.3417C21.8079 10.3988 21.8441 10.4583 21.8774 10.5189C21.9104 10.58 21.9405 10.6422 21.9673 10.706C21.9946 10.7699 22.0181 10.8349 22.0385 10.9012C22.0588 10.9674 22.0759 11.034 22.0897 11.1019C22.1036 11.1697 22.1137 11.2379 22.1206 11.3066C22.1276 11.3752 22.1308 11.4442 22.1308 11.5133Z" fill="#EFFFFF"/>
<path d="M21.3125 11.5132C21.3125 11.599 21.3039 11.684 21.2873 11.7682C21.2702 11.852 21.245 11.9338 21.2116 12.0132C21.1778 12.0922 21.1372 12.1676 21.0884 12.2386C21.04 12.3101 20.985 12.3759 20.9232 12.4366C20.8614 12.4972 20.7943 12.5515 20.7215 12.599C20.6491 12.6468 20.5722 12.6867 20.4917 12.7199C20.4111 12.7526 20.3278 12.7773 20.2424 12.7941C20.1565 12.8108 20.0699 12.8192 19.9829 12.8192C19.8954 12.8192 19.8088 12.8108 19.7234 12.7941C19.6375 12.7773 19.5546 12.7526 19.4736 12.7199C19.3931 12.6867 19.3166 12.6468 19.2438 12.599C19.1714 12.5515 19.1039 12.4972 19.0425 12.4366C18.9807 12.3759 18.9253 12.3101 18.8769 12.2386C18.8285 12.1676 18.7875 12.0922 18.7541 12.0132C18.7208 11.9338 18.6955 11.852 18.6785 11.7682C18.6614 11.684 18.6528 11.599 18.6528 11.5132C18.6528 11.4274 18.6614 11.3428 18.6785 11.2587C18.6955 11.1745 18.7208 11.0931 18.7541 11.0137C18.7875 10.9343 18.8285 10.8592 18.8769 10.7878C18.9253 10.7168 18.9807 10.6506 19.0425 10.5899C19.1039 10.5293 19.1714 10.4754 19.2438 10.4275C19.3166 10.38 19.3931 10.3397 19.4736 10.307C19.5546 10.2743 19.6375 10.2495 19.7234 10.2328C19.8088 10.216 19.8954 10.2076 19.9829 10.2076C20.0699 10.2076 20.1565 10.216 20.2424 10.2328C20.3278 10.2495 20.4111 10.2743 20.4917 10.307C20.5722 10.3397 20.6491 10.38 20.7215 10.4275C20.7943 10.4754 20.8614 10.5293 20.9232 10.5899C20.985 10.6506 21.04 10.7168 21.0884 10.7878C21.1372 10.8592 21.1778 10.9343 21.2116 11.0137C21.245 11.0931 21.2702 11.1745 21.2873 11.2587C21.3039 11.3428 21.3125 11.4274 21.3125 11.5132Z" fill="#1F1D1E"/>
<path d="M21.5944 16.4375C21.0542 17.0089 20.1122 17.53 18.6529 17.7503C16.6993 18.0452 15.2526 17.2842 14.481 16.4076C13.4763 15.2668 13.6167 13.9297 15.2733 14.4727C18.9486 15.6782 20.7951 14.4727 20.7951 14.4727C22.1048 13.8411 22.7194 15.2484 21.594 16.4375H21.5944Z" fill="#1F1D1E"/>
<path d="M21.5943 16.4376C21.0542 17.009 20.1122 17.5301 18.6528 17.7504C16.6993 18.0453 15.2525 17.2843 14.481 16.4077C15.2253 15.9205 16.5297 15.5973 18.0151 15.5973C19.5009 15.5973 20.8582 15.9337 21.5943 16.4376Z" fill="#EF6946"/>
</svg>
