<svg width="33" height="33" viewBox="0 0 33 33" fill="none" xmlns="http://www.w3.org/2000/svg">
<path d="M22.5 18.75C15.8267 21.0521 13.6267 23.6155 12 30C10.3733 23.6155 8.17335 21.0521 1.5 18.75C8.17335 16.4479 10.3733 13.8846 12 7.5C13.6267 13.8846 15.8267 16.4479 22.5 18.75Z" stroke="#FAF6EB" stroke-width="3" stroke-linecap="round" stroke-linejoin="round"/>
<path d="M31.5 8.25003C27.6866 9.63126 26.4296 11.1693 25.4999 15C24.5704 11.1693 23.3133 9.63126 19.5 8.25003C23.3133 6.8688 24.5704 5.33072 25.4999 1.5C26.4296 5.33072 27.6866 6.8688 31.5 8.25003Z" stroke="#FAF6EB" stroke-width="3" stroke-linecap="round" stroke-linejoin="round"/>
<path d="M31.5 27.75C29.1167 28.5173 28.3311 29.3718 27.75 31.5C27.1691 29.3718 26.3834 28.5173 24 27.75C26.3834 26.9826 27.1691 26.1282 27.75 24C28.3311 26.1282 29.1167 26.9826 31.5 27.75Z" stroke="#FAF6EB" stroke-width="3" stroke-linecap="round" stroke-linejoin="round"/>
</svg>
